<svg width="3917" height="779" viewBox="0 0 3917 779" fill="none" xmlns="http://www.w3.org/2000/svg">
<path d="M989.179 216.38L1127.27 42.4834H1267.05L1094.29 242.088L1283.17 464.06H1136.42L989.099 281.232V464.06H875.883V42.4834H989.099V216.38H989.179Z" fill="#53389E"/>
<path d="M1316.79 67.1043C1316.79 59.2599 1318.32 51.8815 1321.45 45.0468C1324.5 38.1345 1328.75 32.0764 1334.12 26.8728C1339.5 21.6691 1345.76 17.5527 1352.9 14.6014C1360.04 11.65 1367.66 10.0967 1375.69 10.0967C1383.71 10.0967 1391.41 11.5724 1398.48 14.6014C1405.62 17.5527 1411.88 21.6691 1417.25 26.8728C1422.63 32.0764 1426.88 38.1345 1429.93 45.0468C1432.98 51.9592 1434.58 59.3376 1434.58 67.1043C1434.58 74.871 1433.06 82.327 1429.93 89.1617C1426.88 96.074 1422.63 102.132 1417.25 107.336C1411.88 112.539 1405.62 116.656 1398.48 119.607C1391.33 122.558 1383.71 124.112 1375.69 124.112C1367.66 124.112 1359.96 122.636 1352.9 119.607C1345.76 116.656 1339.5 112.539 1334.12 107.336C1328.75 102.132 1324.5 96.074 1321.45 89.1617C1318.4 82.2493 1316.79 74.871 1316.79 67.1043ZM1428.32 177.236V464.138H1323.77V177.236H1428.32Z" fill="#53389E"/>
<path d="M1728.66 0H1833.77V464.138H1728.66V432.294C1706.35 459.478 1676.1 473.147 1637.99 473.147C1616.4 473.147 1596.58 469.264 1578.45 461.42C1560.32 453.575 1544.59 442.78 1531.11 428.955C1517.63 415.208 1507.12 398.975 1499.66 380.335C1492.11 361.695 1488.42 341.579 1488.42 319.91C1488.42 299.406 1491.95 279.912 1499.09 261.505C1506.24 243.02 1516.35 226.943 1529.42 213.118C1542.5 199.371 1558.23 188.42 1576.52 180.42C1594.82 172.421 1614.96 168.382 1636.86 168.382C1673.85 168.382 1704.42 180.886 1728.74 205.818V0H1728.66ZM1596.91 319.833C1596.91 329.153 1598.67 337.851 1602.12 345.851C1605.57 353.851 1610.3 360.841 1616.24 366.821C1622.18 372.802 1629.32 377.462 1637.59 380.801C1645.85 384.141 1654.84 385.85 1664.47 385.85C1674.09 385.85 1682.44 384.141 1690.78 380.801C1699.13 377.462 1706.19 372.802 1712.13 366.821C1718.07 360.841 1722.88 353.928 1726.57 346.162C1730.26 338.317 1732.03 329.929 1732.03 320.998C1732.03 312.066 1730.18 303.6 1726.57 295.523C1722.88 287.523 1718.07 280.533 1712.13 274.553C1706.19 268.572 1699.05 263.912 1690.78 260.573C1682.52 257.233 1673.77 255.524 1664.47 255.524C1655.16 255.524 1646.41 257.233 1638.15 260.573C1629.88 263.912 1622.74 268.572 1616.8 274.553C1610.79 280.533 1606.05 287.368 1602.36 294.979C1598.67 302.591 1596.91 310.901 1596.91 319.833Z" fill="#53389E"/>
<path d="M2057.39 379.714H2182.16V464.138H1881.75L2021.53 261.738H1900.77V177.313H2195.97L2057.31 379.714H2057.39Z" fill="#53389E"/>
<path d="M2471.55 39.9403C2494.85 45.6381 2517.14 54.089 2538.55 65.142L2494 149.7C2481.76 140.143 2469.58 133.084 2457.32 128.459C2444.91 123.781 2432.98 121.437 2421.36 121.437C2406.68 121.437 2394.61 124.794 2385.27 131.63C2375.93 138.397 2371.19 147.319 2371.19 158.285C2371.19 165.855 2373.55 172.117 2378.22 177.111L2378.23 177.117C2382.93 181.984 2389 186.21 2396.59 189.804C2404.16 193.391 2412.61 196.429 2422.1 199.076C2431.57 201.715 2440.87 204.509 2450.09 207.458C2487.03 219.403 2513.97 235.286 2531.06 255.151C2548.14 275.002 2556.62 300.896 2556.62 332.803C2556.62 354.335 2552.86 373.84 2545.43 391.323C2537.91 408.807 2527.05 423.734 2512.66 436.188C2498.27 448.643 2480.6 458.321 2459.71 465.138L2459.71 465.138C2438.75 472.031 2415.05 475.443 2388.54 475.443C2333.66 475.443 2282.94 459.716 2236.1 428.251L2284.13 340.806C2300.93 355.154 2317.59 365.846 2334.02 372.95L2334.02 372.95C2350.6 380.041 2367.04 383.631 2383.32 383.631C2401.84 383.631 2415.78 379.502 2424.98 371.231L2424.98 371.23C2434.13 362.92 2438.71 353.472 2438.71 342.9C2438.71 336.472 2437.57 330.955 2435.2 326.211C2432.83 321.462 2428.92 317.133 2423.5 313.139L2423.49 313.136C2418.07 309.22 2410.97 305.551 2402.28 302.201C2393.6 298.858 2383.08 295.128 2370.8 291.01L2370.79 291.006C2356.2 286.504 2341.85 281.615 2327.82 276.183C2313.82 270.764 2301.35 263.644 2290.4 254.748C2279.47 245.865 2270.69 234.662 2263.98 221.052L2263.97 221.051C2257.28 207.549 2253.92 190.39 2253.92 169.547C2253.92 148.712 2257.44 129.906 2264.55 112.967C2271.66 96.0964 2281.66 81.5535 2294.44 69.4873C2307.3 57.424 2323.05 48.0598 2341.61 41.323C2360.24 34.6657 2381.05 31.2559 2404.1 31.2559C2425.64 31.2559 2448.15 34.1236 2471.54 39.9398L2471.55 39.9403Z" fill="#53389E"/>
<path d="M2471.55 39.9403C2494.85 45.6381 2517.14 54.089 2538.55 65.142L2494 149.7C2481.76 140.143 2469.58 133.084 2457.32 128.459C2444.91 123.781 2432.98 121.437 2421.36 121.437C2406.68 121.437 2394.61 124.794 2385.27 131.63C2375.93 138.397 2371.19 147.319 2371.19 158.285C2371.19 165.855 2373.55 172.117 2378.22 177.111L2378.23 177.117C2382.93 181.984 2389 186.21 2396.59 189.804C2404.16 193.391 2412.61 196.429 2422.1 199.076C2431.57 201.715 2440.87 204.509 2450.09 207.458C2487.03 219.403 2513.97 235.286 2531.06 255.151C2548.14 275.002 2556.62 300.896 2556.62 332.803C2556.62 354.335 2552.86 373.84 2545.43 391.323C2537.91 408.807 2527.05 423.734 2512.66 436.188C2498.27 448.643 2480.6 458.321 2459.71 465.138L2459.71 465.138C2438.75 472.031 2415.05 475.443 2388.54 475.443C2333.66 475.443 2282.94 459.716 2236.1 428.251L2284.13 340.806C2300.93 355.154 2317.59 365.846 2334.02 372.95L2334.02 372.95C2350.6 380.041 2367.04 383.631 2383.32 383.631C2401.84 383.631 2415.78 379.502 2424.98 371.231L2424.98 371.23C2434.13 362.92 2438.71 353.472 2438.71 342.9C2438.71 336.472 2437.57 330.955 2435.2 326.211C2432.83 321.462 2428.92 317.133 2423.5 313.139L2423.49 313.136C2418.07 309.22 2410.97 305.551 2402.28 302.201C2393.6 298.858 2383.08 295.128 2370.8 291.01L2370.79 291.006C2356.2 286.504 2341.85 281.615 2327.82 276.183C2313.82 270.764 2301.35 263.644 2290.4 254.748C2279.47 245.865 2270.69 234.662 2263.98 221.052L2263.97 221.051C2257.28 207.549 2253.92 190.39 2253.92 169.547C2253.92 148.712 2257.44 129.906 2264.55 112.967C2271.66 96.0964 2281.66 81.5535 2294.44 69.4873C2307.3 57.424 2323.05 48.0598 2341.61 41.323C2360.24 34.6657 2381.05 31.2559 2404.1 31.2559C2425.64 31.2559 2448.15 34.1236 2471.54 39.9398L2471.55 39.9403Z" fill="#53389E"/>
<path d="M2471.55 39.9403C2494.85 45.6381 2517.14 54.089 2538.55 65.142L2494 149.7C2481.76 140.143 2469.58 133.084 2457.32 128.459C2444.91 123.781 2432.98 121.437 2421.36 121.437C2406.68 121.437 2394.61 124.794 2385.27 131.63C2375.93 138.397 2371.19 147.319 2371.19 158.285C2371.19 165.855 2373.55 172.117 2378.22 177.111L2378.23 177.117C2382.93 181.984 2389 186.21 2396.59 189.804C2404.16 193.391 2412.61 196.429 2422.1 199.076C2431.57 201.715 2440.87 204.509 2450.09 207.458C2487.03 219.403 2513.97 235.286 2531.06 255.151C2548.14 275.002 2556.62 300.896 2556.62 332.803C2556.62 354.335 2552.86 373.84 2545.43 391.323C2537.91 408.807 2527.05 423.734 2512.66 436.188C2498.27 448.643 2480.6 458.321 2459.71 465.138L2459.71 465.138C2438.75 472.031 2415.05 475.443 2388.54 475.443C2333.66 475.443 2282.94 459.716 2236.1 428.251L2284.13 340.806C2300.93 355.154 2317.59 365.846 2334.02 372.95L2334.02 372.95C2350.6 380.041 2367.04 383.631 2383.32 383.631C2401.84 383.631 2415.78 379.502 2424.98 371.231L2424.98 371.23C2434.13 362.92 2438.71 353.472 2438.71 342.9C2438.71 336.472 2437.57 330.955 2435.2 326.211C2432.83 321.462 2428.92 317.133 2423.5 313.139L2423.49 313.136C2418.07 309.22 2410.97 305.551 2402.28 302.201C2393.6 298.858 2383.08 295.128 2370.8 291.01L2370.79 291.006C2356.2 286.504 2341.85 281.615 2327.82 276.183C2313.82 270.764 2301.35 263.644 2290.4 254.748C2279.47 245.865 2270.69 234.662 2263.98 221.052L2263.97 221.051C2257.28 207.549 2253.92 190.39 2253.92 169.547C2253.92 148.712 2257.44 129.906 2264.55 112.967C2271.66 96.0964 2281.66 81.5535 2294.44 69.4873C2307.3 57.424 2323.05 48.0598 2341.61 41.323C2360.24 34.6657 2381.05 31.2559 2404.1 31.2559C2425.64 31.2559 2448.15 34.1236 2471.54 39.9398L2471.55 39.9403Z" stroke="#53389E"/>
<path d="M2722.39 310.746V463.483H2618.84V0.5H2722.39V213.584V214.943L2723.27 213.908C2737.52 197.172 2751.9 185.972 2766.4 180.187C2780.94 174.467 2798.04 171.523 2817.65 171.523C2854.96 171.523 2882.97 181.439 2901.94 201.27C2920.93 221.117 2930.37 247.932 2930.37 281.698V463.483H2826.82V319.134C2826.82 304.59 2825.69 292.815 2823.35 283.748C2821.01 274.669 2817.11 267.738 2811.65 262.841L2811.64 262.832C2802.31 254.904 2791.04 250.986 2777.77 250.986C2759.94 250.986 2746.23 256.144 2736.65 266.525C2727.06 276.899 2722.39 291.64 2722.39 310.746Z" fill="#53389E"/>
<path d="M2722.39 310.746V463.483H2618.84V0.5H2722.39V213.584V214.943L2723.27 213.908C2737.52 197.172 2751.9 185.972 2766.4 180.187C2780.94 174.467 2798.04 171.523 2817.65 171.523C2854.96 171.523 2882.97 181.439 2901.94 201.27C2920.93 221.117 2930.37 247.932 2930.37 281.698V463.483H2826.82V319.134C2826.82 304.59 2825.69 292.815 2823.35 283.748C2821.01 274.669 2817.11 267.738 2811.65 262.841L2811.64 262.832C2802.31 254.904 2791.04 250.986 2777.77 250.986C2759.94 250.986 2746.23 256.144 2736.65 266.525C2727.06 276.899 2722.39 291.64 2722.39 310.746Z" fill="#53389E"/>
<path d="M2722.39 310.746V463.483H2618.84V0.5H2722.39V213.584V214.943L2723.27 213.908C2737.52 197.172 2751.9 185.972 2766.4 180.187C2780.94 174.467 2798.04 171.523 2817.65 171.523C2854.96 171.523 2882.97 181.439 2901.94 201.27C2920.93 221.117 2930.37 247.932 2930.37 281.698V463.483H2826.82V319.134C2826.82 304.59 2825.69 292.815 2823.35 283.748C2821.01 274.669 2817.11 267.738 2811.65 262.841L2811.64 262.832C2802.31 254.904 2791.04 250.986 2777.77 250.986C2759.94 250.986 2746.23 256.144 2736.65 266.525C2727.06 276.899 2722.39 291.64 2722.39 310.746Z" stroke="#53389E"/>
<path d="M3231.38 205.817V177.736H3335.33V463.638H3231.22V432.294V430.897L3230.33 431.977C3208.13 459.035 3178.03 472.647 3140.05 472.647C3118.53 472.647 3098.78 468.852 3080.71 461.192L3080.71 461.191C3062.64 453.606 3046.96 442.926 3033.53 429.149C3020.1 415.372 3009.62 399.273 3002.18 380.693L3002.18 380.691C2994.67 362.117 2990.99 341.833 2990.99 319.91C2990.99 299.467 2994.67 280.036 3001.94 261.689C3009.22 243.338 3019.38 227.239 3032.49 213.463L3032.49 213.463C3045.52 199.765 3061.12 188.851 3079.11 180.877C3097.18 172.908 3117.09 168.882 3139.01 168.882C3175.87 168.882 3206.31 181.338 3230.52 206.166L3231.38 207.046V205.817ZM3229.09 346.376L3229.09 346.374C3232.81 338.459 3234.59 329.997 3234.59 320.997C3234.59 311.994 3232.73 303.459 3229.09 295.319L3229.09 295.313C3225.37 287.263 3220.53 280.224 3214.55 274.2C3208.56 268.169 3201.36 263.472 3193.04 260.109C3184.71 256.745 3175.9 255.024 3166.53 255.024C3157.16 255.024 3147.79 256.743 3139.46 260.109C3131.14 263.472 3123.94 268.169 3117.95 274.2C3111.97 280.222 3107.2 287.106 3103.73 294.773C3100.25 302.452 3098.47 310.833 3098.47 319.832C3098.47 329.217 3100.25 337.984 3103.73 346.049C3107.2 354.105 3111.97 361.148 3117.95 367.173C3123.94 373.205 3131.14 377.901 3139.46 381.265C3147.79 384.63 3156.84 386.349 3166.53 386.349C3176.22 386.349 3184.63 384.628 3193.03 381.265C3201.44 377.901 3208.56 373.204 3214.55 367.173C3220.53 361.151 3225.37 354.192 3229.09 346.376Z" fill="#53389E"/>
<path d="M3231.38 205.817V177.736H3335.33V463.638H3231.22V432.294V430.897L3230.33 431.977C3208.13 459.035 3178.03 472.647 3140.05 472.647C3118.53 472.647 3098.78 468.852 3080.71 461.192L3080.71 461.191C3062.64 453.606 3046.96 442.926 3033.53 429.149C3020.1 415.372 3009.62 399.273 3002.18 380.693L3002.18 380.691C2994.67 362.117 2990.99 341.833 2990.99 319.91C2990.99 299.467 2994.67 280.036 3001.94 261.689C3009.22 243.338 3019.38 227.239 3032.49 213.463L3032.49 213.463C3045.52 199.765 3061.12 188.851 3079.11 180.877C3097.18 172.908 3117.09 168.882 3139.01 168.882C3175.87 168.882 3206.31 181.338 3230.52 206.166L3231.38 207.046V205.817ZM3229.09 346.376L3229.09 346.374C3232.81 338.459 3234.59 329.997 3234.59 320.997C3234.59 311.994 3232.73 303.459 3229.09 295.319L3229.09 295.313C3225.37 287.263 3220.53 280.224 3214.55 274.2C3208.56 268.169 3201.36 263.472 3193.04 260.109C3184.71 256.745 3175.9 255.024 3166.53 255.024C3157.16 255.024 3147.79 256.743 3139.46 260.109C3131.14 263.472 3123.94 268.169 3117.95 274.2C3111.97 280.222 3107.2 287.106 3103.73 294.773C3100.25 302.452 3098.47 310.833 3098.47 319.832C3098.47 329.217 3100.25 337.984 3103.73 346.049C3107.2 354.105 3111.97 361.148 3117.95 367.173C3123.94 373.205 3131.14 377.901 3139.46 381.265C3147.79 384.63 3156.84 386.349 3166.53 386.349C3176.22 386.349 3184.63 384.628 3193.03 381.265C3201.44 377.901 3208.56 373.204 3214.55 367.173C3220.53 361.151 3225.37 354.192 3229.09 346.376Z" fill="#53389E"/>
<path d="M3231.38 205.817V177.736H3335.33V463.638H3231.22V432.294V430.897L3230.33 431.977C3208.13 459.035 3178.03 472.647 3140.05 472.647C3118.53 472.647 3098.78 468.852 3080.71 461.192L3080.71 461.191C3062.64 453.606 3046.96 442.926 3033.53 429.149C3020.1 415.372 3009.62 399.273 3002.18 380.693L3002.18 380.691C2994.67 362.117 2990.99 341.833 2990.99 319.91C2990.99 299.467 2994.67 280.036 3001.94 261.689C3009.22 243.338 3019.38 227.239 3032.49 213.463L3032.49 213.463C3045.52 199.765 3061.12 188.851 3079.11 180.877C3097.18 172.908 3117.09 168.882 3139.01 168.882C3175.87 168.882 3206.31 181.338 3230.52 206.166L3231.38 207.046V205.817ZM3229.09 346.376L3229.09 346.374C3232.81 338.459 3234.59 329.997 3234.59 320.997C3234.59 311.994 3232.73 303.459 3229.09 295.319L3229.09 295.313C3225.37 287.263 3220.53 280.224 3214.55 274.2C3208.56 268.169 3201.36 263.472 3193.04 260.109C3184.71 256.745 3175.9 255.024 3166.53 255.024C3157.16 255.024 3147.79 256.743 3139.46 260.109C3131.14 263.472 3123.94 268.169 3117.95 274.2C3111.97 280.222 3107.2 287.106 3103.73 294.773C3100.25 302.452 3098.47 310.833 3098.47 319.832C3098.47 329.217 3100.25 337.984 3103.73 346.049C3107.2 354.105 3111.97 361.148 3117.95 367.173C3123.94 373.205 3131.14 377.901 3139.46 381.265C3147.79 384.63 3156.84 386.349 3166.53 386.349C3176.22 386.349 3184.63 384.628 3193.03 381.265C3201.44 377.901 3208.56 373.204 3214.55 367.173C3220.53 361.151 3225.37 354.192 3229.09 346.376Z" stroke="#53389E"/>
<path d="M3510.97 0.5V463.638H3407.42V0.5H3510.97Z" fill="#53389E"/>
<path d="M3510.97 0.5V463.638H3407.42V0.5H3510.97Z" fill="#53389E"/>
<path d="M3510.97 0.5V463.638H3407.42V0.5H3510.97Z" stroke="#53389E"/>
<path d="M3812.55 205.817V177.736H3916.5V463.638H3812.39V432.294V430.897L3811.5 431.977C3789.3 459.035 3759.2 472.647 3721.22 472.647C3699.69 472.647 3679.94 468.852 3661.88 461.192L3661.87 461.191C3643.8 453.606 3628.13 442.926 3614.7 429.149C3601.27 415.372 3590.79 399.273 3583.35 380.693L3583.35 380.691C3575.83 362.117 3572.15 341.833 3572.15 319.91C3572.15 299.467 3575.83 280.036 3583.11 261.689C3590.39 243.338 3600.55 227.239 3613.66 213.463L3613.66 213.463C3626.69 199.765 3642.28 188.851 3660.28 180.877C3678.34 172.908 3698.25 168.882 3720.18 168.882C3757.04 168.882 3787.48 181.338 3811.69 206.166L3812.55 207.046V205.817ZM3810.25 346.376L3810.25 346.374C3813.98 338.459 3815.76 329.997 3815.76 320.997C3815.76 311.994 3813.9 303.459 3810.26 295.319L3810.26 295.313C3806.54 287.263 3801.69 280.224 3795.71 274.2C3789.72 268.169 3782.53 263.472 3774.2 260.109C3765.88 256.745 3757.07 255.024 3747.7 255.024C3738.33 255.024 3728.96 256.743 3720.63 260.109C3712.31 263.472 3705.11 268.169 3699.12 274.2C3693.14 280.222 3688.37 287.106 3684.9 294.773C3681.42 302.452 3679.64 310.833 3679.64 319.832C3679.64 329.217 3681.41 337.984 3684.89 346.049C3688.37 354.105 3693.14 361.148 3699.12 367.173C3705.11 373.205 3712.31 377.901 3720.63 381.265C3728.96 384.63 3738.01 386.349 3747.7 386.349C3757.39 386.349 3765.8 384.628 3774.2 381.265C3782.61 377.901 3789.73 373.204 3795.71 367.173C3801.69 361.151 3806.54 354.192 3810.25 346.376Z" fill="#53389E"/>
<path d="M3812.55 205.817V177.736H3916.5V463.638H3812.39V432.294V430.897L3811.5 431.977C3789.3 459.035 3759.2 472.647 3721.22 472.647C3699.69 472.647 3679.94 468.852 3661.88 461.192L3661.87 461.191C3643.8 453.606 3628.13 442.926 3614.7 429.149C3601.27 415.372 3590.79 399.273 3583.35 380.693L3583.35 380.691C3575.83 362.117 3572.15 341.833 3572.15 319.91C3572.15 299.467 3575.83 280.036 3583.11 261.689C3590.39 243.338 3600.55 227.239 3613.66 213.463L3613.66 213.463C3626.69 199.765 3642.28 188.851 3660.28 180.877C3678.34 172.908 3698.25 168.882 3720.18 168.882C3757.04 168.882 3787.48 181.338 3811.69 206.166L3812.55 207.046V205.817ZM3810.25 346.376L3810.25 346.374C3813.98 338.459 3815.76 329.997 3815.76 320.997C3815.76 311.994 3813.9 303.459 3810.26 295.319L3810.26 295.313C3806.54 287.263 3801.69 280.224 3795.71 274.2C3789.72 268.169 3782.53 263.472 3774.2 260.109C3765.88 256.745 3757.07 255.024 3747.7 255.024C3738.33 255.024 3728.96 256.743 3720.63 260.109C3712.31 263.472 3705.11 268.169 3699.12 274.2C3693.14 280.222 3688.37 287.106 3684.9 294.773C3681.42 302.452 3679.64 310.833 3679.64 319.832C3679.64 329.217 3681.41 337.984 3684.89 346.049C3688.37 354.105 3693.14 361.148 3699.12 367.173C3705.11 373.205 3712.31 377.901 3720.63 381.265C3728.96 384.63 3738.01 386.349 3747.7 386.349C3757.39 386.349 3765.8 384.628 3774.2 381.265C3782.61 377.901 3789.73 373.204 3795.71 367.173C3801.69 361.151 3806.54 354.192 3810.25 346.376Z" fill="#53389E"/>
<path d="M3812.55 205.817V177.736H3916.5V463.638H3812.39V432.294V430.897L3811.5 431.977C3789.3 459.035 3759.2 472.647 3721.22 472.647C3699.69 472.647 3679.94 468.852 3661.88 461.192L3661.87 461.191C3643.8 453.606 3628.13 442.926 3614.7 429.149C3601.27 415.372 3590.79 399.273 3583.35 380.693L3583.35 380.691C3575.83 362.117 3572.15 341.833 3572.15 319.91C3572.15 299.467 3575.83 280.036 3583.11 261.689C3590.39 243.338 3600.55 227.239 3613.66 213.463L3613.66 213.463C3626.69 199.765 3642.28 188.851 3660.28 180.877C3678.34 172.908 3698.25 168.882 3720.18 168.882C3757.04 168.882 3787.48 181.338 3811.69 206.166L3812.55 207.046V205.817ZM3810.25 346.376L3810.25 346.374C3813.98 338.459 3815.76 329.997 3815.76 320.997C3815.76 311.994 3813.9 303.459 3810.26 295.319L3810.26 295.313C3806.54 287.263 3801.69 280.224 3795.71 274.2C3789.72 268.169 3782.53 263.472 3774.2 260.109C3765.88 256.745 3757.07 255.024 3747.7 255.024C3738.33 255.024 3728.96 256.743 3720.63 260.109C3712.31 263.472 3705.11 268.169 3699.12 274.2C3693.14 280.222 3688.37 287.106 3684.9 294.773C3681.42 302.452 3679.64 310.833 3679.64 319.832C3679.64 329.217 3681.41 337.984 3684.89 346.049C3688.37 354.105 3693.14 361.148 3699.12 367.173C3705.11 373.205 3712.31 377.901 3720.63 381.265C3728.96 384.63 3738.01 386.349 3747.7 386.349C3757.39 386.349 3765.8 384.628 3774.2 381.265C3782.61 377.901 3789.73 373.204 3795.71 367.173C3801.69 361.151 3806.54 354.192 3810.25 346.376Z" stroke="#53389E"/>
<path d="M863.767 730.536V590.036H885.592C895.3 590.036 903.084 590.735 908.781 592.211C914.638 593.686 919.532 596.094 923.544 599.589C927.637 603.162 930.846 607.667 933.253 612.948C935.66 618.385 936.944 623.821 936.944 629.336C936.944 639.432 932.932 647.898 924.989 654.888C932.692 657.451 938.79 661.878 943.203 668.247C947.696 674.538 949.943 681.916 949.943 690.304C949.943 701.255 945.931 710.575 937.907 718.187C933.093 722.847 927.637 726.109 921.619 727.895C915.039 729.681 906.775 730.536 896.905 730.536H863.687H863.767ZM885.672 650.383H892.572C900.757 650.383 906.694 648.675 910.466 645.18C914.237 641.685 916.162 636.559 916.162 629.724C916.162 622.889 914.237 618.074 910.305 614.657C906.373 611.239 900.757 609.531 893.375 609.531H885.672V650.383ZM885.672 710.653H899.232C909.101 710.653 916.403 708.789 921.057 704.983C925.952 700.945 928.359 695.741 928.359 689.528C928.359 683.314 926.032 678.343 921.298 674.227C916.724 670.188 908.54 668.091 896.745 668.091H885.672V710.575V710.653Z" fill="#53389E"/>
<path d="M1056.98 691.081H991.346C991.908 698.382 994.395 704.129 998.648 708.479C1002.98 712.75 1008.52 714.847 1015.26 714.847C1020.55 714.847 1024.89 713.605 1028.34 711.197C1031.71 708.789 1035.56 704.284 1039.89 697.76L1057.78 707.391C1055.06 711.974 1052.09 715.857 1049.04 719.119C1045.99 722.381 1042.7 725.022 1039.17 727.119C1035.64 729.216 1031.87 730.769 1027.77 731.701C1023.68 732.633 1019.27 733.177 1014.53 733.177C1000.89 733.177 989.902 728.905 981.637 720.439C973.373 711.896 969.2 700.556 969.2 686.421C969.2 672.286 973.212 661.024 981.236 652.403C989.34 643.86 1000.01 639.588 1013.41 639.588C1026.81 639.588 1037.56 643.782 1045.35 652.092C1053.13 660.325 1056.98 671.82 1056.98 686.421V691.236V691.081ZM1035.24 674.305C1032.27 663.354 1025.21 657.917 1013.89 657.917C1011.33 657.917 1008.92 658.306 1006.67 659.082C1004.42 659.859 1002.34 660.946 1000.49 662.344C998.648 663.742 997.043 665.451 995.759 667.47C994.475 669.49 993.432 671.742 992.71 674.305H1035.24Z" fill="#53389E"/>
<path d="M1105.69 714.071L1064.52 641.918H1089.08L1117.08 692.868L1143.24 641.918H1167.15L1094.21 778.767H1070.06L1105.77 714.071H1105.69Z" fill="#53389E"/>
<path d="M1173.49 685.567C1173.49 672.752 1178.22 661.878 1187.69 652.869C1197.16 643.86 1208.71 639.433 1222.27 639.433C1235.83 639.433 1247.55 643.937 1257.1 653.024C1266.48 662.034 1271.22 673.14 1271.22 686.343C1271.22 699.547 1266.48 710.731 1257.02 719.74C1247.47 728.672 1235.83 733.099 1221.95 733.099C1208.07 733.099 1196.76 728.517 1187.45 719.43C1178.14 710.42 1173.57 699.158 1173.57 685.567H1173.49ZM1195.15 685.955C1195.15 694.809 1197.56 701.799 1202.45 707.003C1207.43 712.207 1214.09 714.847 1222.27 714.847C1230.46 714.847 1237.2 712.284 1242.09 707.081C1246.99 701.877 1249.55 695.042 1249.55 686.421C1249.55 677.8 1247.07 670.888 1242.09 665.762C1237.12 660.558 1230.46 657.917 1222.27 657.917C1214.09 657.917 1207.67 660.558 1202.61 665.762C1197.56 670.965 1195.07 677.722 1195.07 685.955H1195.15Z" fill="#53389E"/>
<path d="M1293.6 641.918H1314.87V650.073C1322.25 643.005 1330.59 639.433 1339.9 639.433C1350.57 639.433 1358.84 642.695 1364.86 649.141C1369.99 654.655 1372.56 663.665 1372.56 676.169V730.536H1351.3V680.984C1351.3 672.286 1350.01 666.228 1347.52 662.888C1345.12 659.471 1340.62 657.762 1334.2 657.762C1327.14 657.762 1322.17 660.014 1319.28 664.519C1316.39 668.946 1314.95 676.713 1314.95 687.742V730.536H1293.68V641.918H1293.6Z" fill="#53389E"/>
<path d="M1466.68 576.833H1487.94V730.536H1466.68V721.215C1458.33 729.138 1448.95 733.021 1438.35 733.021C1425.84 733.021 1415.41 728.594 1407.14 719.74C1398.96 710.73 1394.78 699.391 1394.78 685.877C1394.78 672.363 1398.88 661.645 1407.14 652.713C1415.33 643.781 1425.52 639.354 1437.87 639.354C1448.62 639.354 1458.17 643.626 1466.68 652.092V576.755V576.833ZM1416.45 685.955C1416.45 694.42 1418.78 701.333 1423.51 706.692C1428.32 712.128 1434.42 714.769 1441.72 714.769C1449.59 714.769 1455.93 712.128 1460.74 706.925C1465.55 701.488 1467.96 694.653 1467.96 686.343C1467.96 678.033 1465.55 671.198 1460.74 665.761C1455.93 660.48 1449.67 657.839 1441.96 657.839C1434.66 657.839 1428.65 660.48 1423.75 665.839C1418.94 671.276 1416.53 677.877 1416.53 685.877L1416.45 685.955Z" fill="#53389E"/>
<path d="M1685.41 597.57V622.656C1672.73 612.404 1659.65 607.278 1646.09 607.278C1631.17 607.278 1618.57 612.482 1608.38 622.811C1598.11 633.141 1592.97 645.723 1592.97 660.713C1592.97 675.702 1598.11 687.896 1608.38 697.993C1618.65 708.09 1631.25 713.216 1646.17 713.216C1653.87 713.216 1660.45 711.973 1665.83 709.565C1668.88 708.323 1671.93 706.692 1675.22 704.672C1678.51 702.653 1681.88 700.09 1685.41 697.216V722.769C1672.89 729.603 1659.73 733.021 1645.93 733.021C1625.15 733.021 1607.5 726.031 1592.81 711.973C1578.21 697.838 1570.91 680.751 1570.91 660.79C1570.91 642.927 1577.01 626.928 1589.28 612.948C1604.37 595.783 1623.79 587.162 1647.7 587.162C1660.7 587.162 1673.37 590.579 1685.49 597.414L1685.41 597.57Z" fill="#53389E"/>
<path d="M1776.56 641.918H1797.82V730.536H1776.56V721.216C1767.81 729.138 1758.51 733.021 1748.48 733.021C1735.8 733.021 1725.37 728.594 1717.1 719.74C1708.92 710.73 1704.75 699.391 1704.75 685.877C1704.75 672.363 1708.84 661.49 1717.1 652.636C1725.37 643.782 1735.56 639.354 1747.91 639.354C1758.59 639.354 1768.13 643.626 1776.56 652.092V641.84V641.918ZM1726.33 685.955C1726.33 694.42 1728.66 701.333 1733.39 706.692C1738.21 712.128 1744.3 714.769 1751.61 714.769C1759.47 714.769 1765.81 712.128 1770.62 706.925C1775.44 701.488 1777.84 694.653 1777.84 686.343C1777.84 678.033 1775.44 671.198 1770.62 665.761C1765.81 660.48 1759.55 657.839 1751.85 657.839C1744.54 657.839 1738.53 660.48 1733.63 665.839C1728.82 671.276 1726.41 677.877 1726.41 685.877L1726.33 685.955Z" fill="#53389E"/>
<path d="M1824.46 641.917H1845.64V649.839C1849.5 645.878 1852.95 643.16 1856 641.762C1859.04 640.209 1862.74 639.51 1866.91 639.51C1872.52 639.51 1878.3 641.296 1884.4 644.791L1874.69 663.509C1870.68 660.713 1866.75 659.315 1862.98 659.315C1851.42 659.315 1845.64 667.781 1845.64 684.634V730.613H1824.46V641.995V641.917Z" fill="#53389E"/>
<path d="M1978.6 691.081H1912.96C1913.53 698.382 1916.01 704.129 1920.27 708.479C1924.6 712.75 1930.14 714.847 1936.88 714.847C1942.17 714.847 1946.5 713.605 1949.95 711.197C1953.32 708.789 1957.18 704.284 1961.51 697.76L1979.4 707.391C1976.67 711.974 1973.71 715.857 1970.66 719.119C1967.61 722.381 1964.32 725.022 1960.79 727.119C1957.26 729.216 1953.49 730.769 1949.39 731.701C1945.3 732.633 1940.89 733.177 1936.15 733.177C1922.51 733.177 1911.52 728.905 1903.26 720.439C1894.99 711.896 1890.82 700.556 1890.82 686.421C1890.82 672.286 1894.83 661.024 1902.85 652.403C1910.96 643.86 1921.63 639.588 1935.03 639.588C1948.43 639.588 1959.18 643.782 1966.97 652.092C1974.75 660.325 1978.6 671.82 1978.6 686.421V691.236V691.081ZM1956.86 674.305C1953.89 663.354 1946.83 657.917 1935.51 657.917C1932.94 657.917 1930.54 658.306 1928.29 659.082C1926.04 659.859 1923.96 660.946 1922.11 662.344C1920.27 663.742 1918.66 665.451 1917.38 667.47C1916.09 669.49 1915.05 671.742 1914.33 674.305H1956.86Z" fill="#53389E"/>
<path d="M2014.79 704.285L2033.56 711.352L2006.76 763.312L1992.48 757.564L2014.79 704.207V704.285Z" fill="#53389E"/>
<path d="M2124.63 730.536V590.036H2146.46C2156.17 590.036 2163.95 590.735 2169.65 592.211C2175.5 593.686 2180.4 596.094 2184.41 599.589C2188.5 603.162 2191.71 607.667 2194.12 612.948C2196.53 618.385 2197.81 623.821 2197.81 629.336C2197.81 639.432 2193.8 647.898 2185.86 654.888C2193.56 657.451 2199.66 661.878 2204.07 668.247C2208.56 674.538 2210.81 681.916 2210.81 690.304C2210.81 701.255 2206.8 710.575 2198.77 718.187C2193.96 722.847 2188.5 726.109 2182.49 727.895C2175.91 729.681 2167.64 730.536 2157.77 730.536H2124.55H2124.63ZM2146.54 650.383H2153.44C2161.62 650.383 2167.56 648.675 2171.33 645.18C2175.1 641.685 2177.03 636.559 2177.03 629.724C2177.03 622.889 2175.1 618.074 2171.17 614.657C2167.24 611.239 2161.62 609.531 2154.24 609.531H2146.54V650.383ZM2146.54 710.653H2160.1C2169.97 710.653 2177.27 708.789 2181.92 704.983C2186.82 700.945 2189.23 695.741 2189.23 689.528C2189.23 683.314 2186.9 678.343 2182.16 674.227C2177.59 670.188 2169.41 668.091 2157.61 668.091H2146.54V710.575V710.653Z" fill="#53389E"/>
<path d="M2255.58 641.918V692.79C2255.58 707.469 2261.6 714.847 2273.56 714.847C2285.51 714.847 2291.53 707.469 2291.53 692.79V641.918H2312.71V693.256C2312.71 700.324 2311.83 706.459 2309.98 711.663C2308.22 716.245 2305.17 720.439 2300.84 724.167C2293.7 730.148 2284.63 733.177 2273.56 733.177C2262.48 733.177 2253.5 730.148 2246.36 724.167C2241.94 720.439 2238.89 716.323 2237.05 711.663C2235.28 707.547 2234.4 701.411 2234.4 693.256V641.918H2255.58Z" fill="#53389E"/>
<path d="M2336.14 605.026C2336.14 601.453 2337.51 598.346 2340.15 595.706C2342.8 593.065 2346.09 591.822 2349.86 591.822C2353.63 591.822 2356.92 593.143 2359.65 595.706C2362.38 598.269 2363.66 601.375 2363.66 605.103C2363.66 608.831 2362.3 611.938 2359.65 614.579C2357 617.219 2353.79 618.462 2349.94 618.462C2346.09 618.462 2342.88 617.142 2340.15 614.579C2337.43 612.016 2336.14 608.754 2336.14 605.026ZM2360.53 641.918V730.536H2339.35V641.918H2360.53Z" fill="#53389E"/>
<path d="M2408.52 576.833V730.536H2387.33V576.833H2408.52Z" fill="#53389E"/>
<path d="M2502.8 576.833H2524.06V730.536H2502.8V721.215C2494.45 729.138 2485.06 733.021 2474.47 733.021C2461.96 733.021 2451.52 728.594 2443.26 719.74C2435.08 710.73 2430.9 699.391 2430.9 685.877C2430.9 672.363 2435 661.645 2443.26 652.713C2451.44 643.781 2461.63 639.354 2473.99 639.354C2484.74 639.354 2494.29 643.626 2502.8 652.092V576.755V576.833ZM2452.57 685.955C2452.57 694.42 2454.89 701.333 2459.63 706.692C2464.44 712.128 2470.54 714.769 2477.84 714.769C2485.71 714.769 2492.05 712.128 2496.86 706.925C2501.67 701.488 2504.08 694.653 2504.08 686.343C2504.08 678.033 2501.67 671.198 2496.86 665.761C2492.05 660.48 2485.79 657.839 2478.08 657.839C2470.78 657.839 2464.76 660.48 2459.87 665.839C2455.06 671.276 2452.65 677.877 2452.65 685.877L2452.57 685.955Z" fill="#53389E"/>
<path d="M2547.57 605.026C2547.57 601.453 2548.93 598.346 2551.58 595.706C2554.23 593.065 2557.52 591.822 2561.29 591.822C2565.06 591.822 2568.35 593.143 2571.08 595.706C2573.81 598.269 2575.09 601.375 2575.09 605.103C2575.09 608.831 2573.73 611.938 2571.08 614.579C2568.43 617.219 2565.22 618.462 2561.37 618.462C2557.52 618.462 2554.31 617.142 2551.58 614.579C2548.85 612.016 2547.57 608.754 2547.57 605.026ZM2571.96 641.918V730.536H2550.78V641.918H2571.96Z" fill="#53389E"/>
<path d="M2598.68 641.918H2619.95V650.073C2627.33 643.005 2635.67 639.433 2644.98 639.433C2655.65 639.433 2663.92 642.695 2669.93 649.141C2675.07 654.655 2677.64 663.665 2677.64 676.169V730.536H2656.37V680.984C2656.37 672.286 2655.09 666.228 2652.6 662.888C2650.2 659.471 2645.7 657.762 2639.28 657.762C2632.22 657.762 2627.25 660.014 2624.36 664.519C2621.47 668.946 2620.03 676.713 2620.03 687.742V730.536H2598.76V641.918H2598.68Z" fill="#53389E"/>
<path d="M2792.86 728.439C2792.86 732.633 2792.7 736.283 2792.46 739.468C2792.22 742.652 2791.82 745.448 2791.25 747.856C2789.73 754.535 2786.84 760.282 2782.43 765.02C2774.16 774.262 2762.77 778.845 2748.33 778.845C2736.13 778.845 2726.02 775.661 2718.16 769.292C2709.97 762.768 2705.32 753.681 2704.04 742.108H2725.3C2726.1 746.458 2727.46 749.875 2729.31 752.205C2733.72 757.719 2740.06 760.515 2748.49 760.515C2763.97 760.515 2771.68 751.351 2771.68 732.944V720.595C2763.25 728.905 2753.62 733.099 2742.63 733.099C2730.19 733.099 2719.92 728.75 2711.98 719.973C2703.96 711.119 2699.94 700.013 2699.94 686.732C2699.94 673.451 2703.63 662.81 2711.1 653.801C2719.12 644.248 2729.71 639.433 2742.87 639.433C2754.43 639.433 2763.97 643.627 2771.68 651.937V641.918H2792.86V728.439ZM2772.56 686.421C2772.56 677.8 2770.15 670.888 2765.42 665.762C2760.6 660.48 2754.43 657.84 2746.88 657.84C2738.86 657.84 2732.52 660.713 2727.87 666.461C2723.69 671.587 2721.53 678.266 2721.53 686.499C2721.53 694.731 2723.61 701.178 2727.87 706.304C2732.44 711.974 2738.78 714.77 2746.88 714.77C2754.99 714.77 2761.33 711.896 2766.06 706.226C2770.39 701.1 2772.56 694.421 2772.56 686.421Z" fill="#53389E"/>
<path d="M2955.58 609.997H2905.03V643.782H2953.82V663.743H2905.03V730.614H2883.13V590.114H2955.66V610.075L2955.58 609.997Z" fill="#53389E"/>
<path d="M2970.91 685.567C2970.91 672.752 2975.64 661.878 2985.11 652.869C2994.58 643.86 3006.13 639.433 3019.69 639.433C3033.25 639.433 3044.97 643.937 3054.52 653.024C3063.9 662.034 3068.64 673.14 3068.64 686.343C3068.64 699.547 3063.9 710.731 3054.44 719.74C3044.89 728.672 3033.25 733.099 3019.37 733.099C3005.49 733.099 2994.18 728.517 2984.87 719.43C2975.56 710.42 2970.99 699.158 2970.99 685.567H2970.91ZM2992.57 685.955C2992.57 694.809 2994.98 701.799 2999.87 707.003C3004.85 712.207 3011.51 714.847 3019.69 714.847C3027.88 714.847 3034.62 712.284 3039.51 707.081C3044.41 701.877 3046.97 695.042 3046.97 686.421C3046.97 677.8 3044.49 670.888 3039.51 665.762C3034.54 660.558 3027.88 657.917 3019.69 657.917C3011.51 657.917 3005.09 660.558 3000.04 665.762C2994.98 670.965 2992.49 677.722 2992.49 685.955H2992.57Z" fill="#53389E"/>
<path d="M3112.13 641.918V692.79C3112.13 707.469 3118.15 714.847 3130.1 714.847C3142.06 714.847 3148.07 707.469 3148.07 692.79V641.918H3169.26V693.256C3169.26 700.324 3168.38 706.459 3166.53 711.663C3164.76 716.245 3161.72 720.439 3157.38 724.167C3150.24 730.148 3141.17 733.177 3130.1 733.177C3119.03 733.177 3110.04 730.148 3102.9 724.167C3098.49 720.439 3095.44 716.323 3093.59 711.663C3091.83 707.547 3090.95 701.411 3090.95 693.256V641.918H3112.13Z" fill="#53389E"/>
<path d="M3195.9 641.918H3217.16V650.073C3224.54 643.005 3232.89 639.433 3242.19 639.433C3252.87 639.433 3261.13 642.695 3267.15 649.141C3272.28 654.655 3274.85 663.665 3274.85 676.169V730.536H3253.59V680.984C3253.59 672.286 3252.3 666.228 3249.82 662.888C3247.41 659.471 3242.92 657.762 3236.5 657.762C3229.44 657.762 3224.46 660.014 3221.57 664.519C3218.68 668.946 3217.24 676.713 3217.24 687.742V730.536H3195.98V641.918H3195.9Z" fill="#53389E"/>
<path d="M3368.97 576.833H3390.23V730.536H3368.97V721.215C3360.63 729.138 3351.24 733.021 3340.65 733.021C3328.13 733.021 3317.7 728.594 3309.43 719.74C3301.25 710.73 3297.08 699.391 3297.08 685.877C3297.08 672.363 3301.17 661.645 3309.43 652.713C3317.62 643.781 3327.81 639.354 3340.17 639.354C3350.92 639.354 3360.47 643.626 3368.97 652.092V576.755V576.833ZM3318.74 685.955C3318.74 694.42 3321.07 701.333 3325.8 706.692C3330.62 712.128 3336.72 714.769 3344.02 714.769C3351.88 714.769 3358.22 712.128 3363.03 706.925C3367.85 701.488 3370.26 694.653 3370.26 686.343C3370.26 678.033 3367.85 671.198 3363.03 665.761C3358.22 660.48 3351.96 657.839 3344.26 657.839C3336.96 657.839 3330.94 660.48 3326.04 665.839C3321.23 671.276 3318.82 677.877 3318.82 685.877L3318.74 685.955Z" fill="#53389E"/>
<path d="M3484.43 641.918H3505.7V730.536H3484.43V721.216C3475.69 729.138 3466.38 733.021 3456.35 733.021C3443.67 733.021 3433.24 728.594 3424.98 719.74C3416.79 710.73 3412.62 699.391 3412.62 685.877C3412.62 672.363 3416.71 661.49 3424.98 652.636C3433.24 643.782 3443.43 639.354 3455.79 639.354C3466.46 639.354 3476.01 643.626 3484.43 652.092V641.84V641.918ZM3434.21 685.955C3434.21 694.42 3436.53 701.333 3441.27 706.692C3446.08 712.128 3452.18 714.769 3459.48 714.769C3467.34 714.769 3473.68 712.128 3478.5 706.925C3483.31 701.488 3485.72 694.653 3485.72 686.343C3485.72 678.033 3483.31 671.198 3478.5 665.761C3473.68 660.48 3467.42 657.839 3459.72 657.839C3452.42 657.839 3446.4 660.48 3441.51 665.839C3436.69 671.276 3434.29 677.877 3434.29 685.877L3434.21 685.955Z" fill="#53389E"/>
<path d="M3554.24 661.024V730.536H3533.06V661.024H3524.07V641.918H3533.06V609.453H3554.24V641.918H3570.69V661.024H3554.24Z" fill="#53389E"/>
<path d="M3581.84 605.026C3581.84 601.453 3583.21 598.346 3585.86 595.706C3588.5 593.065 3591.79 591.822 3595.56 591.822C3599.34 591.822 3602.63 593.143 3605.35 595.706C3608.08 598.269 3609.37 601.375 3609.37 605.103C3609.37 608.831 3608 611.938 3605.35 614.579C3602.71 617.219 3599.5 618.462 3595.64 618.462C3591.79 618.462 3588.58 617.142 3585.86 614.579C3583.13 612.016 3581.84 608.754 3581.84 605.026ZM3606.24 641.918V730.536H3585.05V641.918H3606.24Z" fill="#53389E"/>
<path d="M3628.7 685.567C3628.7 672.752 3633.44 661.878 3642.91 652.869C3652.37 643.86 3663.93 639.433 3677.49 639.433C3691.05 639.433 3702.76 643.937 3712.31 653.024C3721.7 662.034 3726.43 673.14 3726.43 686.343C3726.43 699.547 3721.7 710.731 3712.23 719.74C3702.68 728.672 3691.05 733.099 3677.17 733.099C3663.29 733.099 3651.97 728.517 3642.66 719.43C3633.36 710.42 3628.78 699.158 3628.78 685.567H3628.7ZM3650.37 685.955C3650.37 694.809 3652.77 701.799 3657.67 707.003C3662.64 712.207 3669.3 714.847 3677.49 714.847C3685.67 714.847 3692.41 712.284 3697.31 707.081C3702.2 701.877 3704.77 695.042 3704.77 686.421C3704.77 677.8 3702.28 670.888 3697.31 665.762C3692.33 660.558 3685.67 657.917 3677.49 657.917C3669.3 657.917 3662.88 660.558 3657.83 665.762C3652.77 670.965 3650.29 677.722 3650.29 685.955H3650.37Z" fill="#53389E"/>
<path d="M3748.82 641.918H3770.08V650.073C3777.46 643.005 3785.81 639.433 3795.12 639.433C3805.79 639.433 3814.05 642.695 3820.07 649.141C3825.21 654.655 3827.77 663.665 3827.77 676.169V730.536H3806.51V680.984C3806.51 672.286 3805.23 666.228 3802.74 662.888C3800.33 659.471 3795.84 657.762 3789.42 657.762C3782.36 657.762 3777.38 660.014 3774.5 664.519C3771.61 668.946 3770.16 676.713 3770.16 687.742V730.536H3748.9V641.918H3748.82Z" fill="#53389E"/>
<path d="M3907.61 657.063L3890.12 666.072C3887.39 660.636 3883.94 657.917 3879.85 657.917C3877.92 657.917 3876.24 658.539 3874.87 659.781C3873.51 661.024 3872.79 662.655 3872.79 664.597C3872.79 668.014 3876.88 671.354 3884.98 674.693C3896.22 679.353 3903.76 683.703 3907.61 687.586C3911.46 691.469 3913.47 696.828 3913.47 703.508C3913.47 712.051 3910.18 719.197 3903.68 725.022C3897.34 730.458 3889.72 733.177 3880.73 733.177C3865.41 733.177 3854.49 725.954 3848.07 711.43L3866.13 703.352C3868.62 707.624 3870.54 710.265 3871.83 711.43C3874.39 713.76 3877.44 714.925 3881.05 714.925C3888.19 714.925 3891.8 711.741 3891.8 705.45C3891.8 701.799 3889.08 698.382 3883.54 695.275C3881.37 694.265 3879.29 693.256 3877.12 692.246C3874.96 691.236 3872.79 690.304 3870.62 689.217C3864.44 686.266 3860.19 683.392 3857.62 680.518C3854.41 676.79 3852.81 672.053 3852.81 666.228C3852.81 658.539 3855.54 652.17 3860.99 647.122C3866.61 642.073 3873.35 639.588 3881.29 639.588C3893.01 639.588 3901.75 645.413 3907.45 657.141L3907.61 657.063Z" fill="#53389E"/>
<path d="M604.837 754.147H32.0954C14.3627 754.147 0 740.245 0 723.08V130.17C0 101.977 35.6259 88.3855 55.525 108.967L628.267 701.955C647.444 721.838 632.921 754.225 604.837 754.225V754.147Z" fill="#53389E"/>
<path d="M123.246 51.416H631.156C658.437 51.416 673.281 82.1721 655.789 102.443L418.925 376.219C406.649 390.432 384.342 391.131 371.183 377.773L100.057 103.997C80.4793 84.2692 95.0024 51.416 123.246 51.416Z" fill="#53389E"/>
</svg>
